<?xml version="1.0" encoding="UTF-8" standalone="no"?>
<svg
   xmlns:dc="http://purl.org/dc/elements/1.1/"
   xmlns:cc="http://creativecommons.org/ns#"
   xmlns:rdf="http://www.w3.org/1999/02/22-rdf-syntax-ns#"
   xmlns:svg="http://www.w3.org/2000/svg"
   xmlns="http://www.w3.org/2000/svg"
   xmlns:sodipodi="http://sodipodi.sourceforge.net/DTD/sodipodi-0.dtd"
   xmlns:inkscape="http://www.inkscape.org/namespaces/inkscape"
   width="171.65866mm"
   height="19.726206mm"
   viewBox="0 0 171.65866 19.726206"
   version="1.1"
   id="svg1377"
   inkscape:version="1.0.2 (e86c870879, 2021-01-15)"
   sodipodi:docname="logo.svg">
  <defs
     id="defs1371">
    <rect
       x="188.78142"
       y="58.186028"
       width="235.28938"
       height="137.33115"
       id="rect909" />
    <rect
       x="26.921654"
       y="238.51437"
       width="60.262573"
       height="74.467216"
       id="rect1978" />
  </defs>
  <sodipodi:namedview
     id="base"
     pagecolor="#ffffff"
     bordercolor="#666666"
     borderopacity="1.0"
     inkscape:pageopacity="0.0"
     inkscape:pageshadow="2"
     inkscape:zoom="0.77394715"
     inkscape:cx="369.66893"
     inkscape:cy="322.59776"
     inkscape:document-units="mm"
     inkscape:current-layer="layer1"
     inkscape:document-rotation="0"
     showgrid="false"
     inkscape:window-width="1533"
     inkscape:window-height="991"
     inkscape:window-x="26"
     inkscape:window-y="23"
     inkscape:window-maximized="0"
     fit-margin-top="0"
     fit-margin-left="0"
     fit-margin-right="0"
     fit-margin-bottom="0" />
  <metadata
     id="metadata1374">
    <rdf:RDF>
      <cc:Work
         rdf:about="">
        <dc:format>image/svg+xml</dc:format>
        <dc:type
           rdf:resource="http://purl.org/dc/dcmitype/StillImage" />
        <dc:title></dc:title>
      </cc:Work>
    </rdf:RDF>
  </metadata>
  <g
     inkscape:label="Layer 1"
     inkscape:groupmode="layer"
     id="layer1"
     transform="translate(-5.5476659,-3.8053271)">
    <g
       id="g938"
       inkscape:export-filename="/home/persepolis/Documents/greendata.solutions/greendata.solutions.logo.2x.png"
       inkscape:export-xdpi="191.85649"
       inkscape:export-ydpi="191.85649"
       transform="translate(-4.3226882,-77.215471)">
      <g
         id="g1970"
         transform="matrix(0.31223691,0,0,0.31223691,136.70791,40.666146)"
         inkscape:export-filename="/home/persepolis/Documents/greendata.solutions/greendata.solutions.logo.png"
         inkscape:export-xdpi="96"
         inkscape:export-ydpi="96">
        <path
           d="m 136.18952,139.02305 c -2.43882,0 -4.59637,1.21161 -5.91548,3.05882 l -20.76374,-5.93228 c -0.23395,-3.79773 -3.39012,-6.81935 -7.24671,-6.81935 -4.008737,0 -7.269734,3.261 -7.269734,7.26973 0,2.52606 1.296821,4.75319 3.257533,6.05604 l -8.793775,35.17338 c -2.855277,0.27045 -5.229187,2.20013 -6.15608,4.81135 l -12.96349,4.9e-4 c -1.001354,-2.81875 -3.686966,-4.84649 -6.846526,-4.84649 -4.008741,0 -7.269733,3.26099 -7.269733,7.26973 0,4.00874 3.260992,7.26973 7.269733,7.26973 3.158177,0 5.845207,-2.02773 6.846526,-4.84649 h 12.96401 c 1.001353,2.81876 3.686965,4.84649 6.846531,4.84649 4.008736,0 7.269728,-3.26099 7.269728,-7.26973 0,-2.52606 -1.296816,-4.75319 -3.257533,-6.05742 l 8.79378,-35.17338 c 2.1534,-0.20351 4.03245,-1.35225 5.22642,-3.02438 l 20.76373,5.93228 c 0.23327,3.79843 3.38943,6.82004 7.2474,6.82004 4.00874,0 7.26973,-3.26099 7.26973,-7.26973 -4.9e-4,-4.00943 -3.26359,-7.26904 -7.2725,-7.26904 z m 0,9.69297 c -1.33672,0 -2.42325,-1.0872 -2.42325,-2.42325 0,-1.33603 1.08653,-2.42324 2.42325,-2.42324 1.33671,0 2.42324,1.08721 2.42324,2.42324 0,1.33605 -1.08653,2.42325 -2.42324,2.42325 z m -33.92541,-9.69297 c -1.33672,0 -2.423245,-1.08721 -2.423245,-2.42325 0,-1.33604 1.086525,-2.42324 2.423245,-2.42324 1.33671,0 2.42324,1.0872 2.42324,2.42324 0,1.33604 -1.08653,2.42325 -2.42324,2.42325 z m -12.116222,48.46486 c -1.33671,0 -2.423239,-1.08653 -2.423239,-2.42324 0,-1.33671 1.086529,-2.42324 2.423239,-2.42324 1.336715,0 2.423244,1.08653 2.423244,2.42324 0,1.33671 -1.086529,2.42324 -2.423244,2.42324 z m -24.232434,-2.42324 c 0,1.33671 -1.086535,2.42324 -2.423245,2.42324 -1.336714,0 -2.423244,-1.08653 -2.423244,-2.42324 0,-1.33671 1.08653,-2.42324 2.423244,-2.42324 1.33671,0 2.423245,1.08653 2.423245,2.42324 z"
           id="path280"
           style="fill:#5ebc67;fill-opacity:1;stroke:#5ebc67;stroke-width:0.173089;stroke-opacity:1" />
        <path
           d="m 78.031672,177.79494 c 0,1.33807 -1.085183,2.42325 -2.423247,2.42325 -1.338063,0 -2.423244,-1.08518 -2.423244,-2.42325 0,-1.33806 1.085181,-2.42324 2.423244,-2.42324 1.338064,0 2.423247,1.08518 2.423247,2.42324"
           id="path282"
           style="fill:#5ebc67;fill-opacity:1;stroke:#5ebc67;stroke-width:0.173089;stroke-opacity:1" />
        <path
           d="m 87.724649,172.94845 c 0,1.33807 -1.08518,2.42325 -2.423244,2.42325 -1.338064,0 -2.423245,-1.08518 -2.423245,-2.42325 0,-1.33806 1.085181,-2.42324 2.423245,-2.42324 1.338064,0 2.423244,1.08518 2.423244,2.42324"
           id="path284"
           style="fill:#5ebc67;fill-opacity:1;stroke:#5ebc67;stroke-width:0.173089;stroke-opacity:1" />
        <path
           d="m 107.1106,163.25548 c 0,1.33806 -1.08518,2.42324 -2.42325,2.42324 -1.33806,0 -2.42324,-1.08518 -2.42324,-2.42324 0,-1.33806 1.08518,-2.42324 2.42324,-2.42324 1.33807,0 2.42325,1.08518 2.42325,2.42324"
           id="path286"
           style="fill:#5ebc67;fill-opacity:1;stroke:#5ebc67;stroke-width:0.173089;stroke-opacity:1" />
        <path
           d="m 116.80357,158.40899 c 0,1.33807 -1.08518,2.42325 -2.42324,2.42325 -1.33807,0 -2.42325,-1.08518 -2.42325,-2.42325 0,-1.33806 1.08518,-2.42324 2.42325,-2.42324 1.33806,0 2.42324,1.08518 2.42324,2.42324"
           id="path288"
           style="fill:#5ebc67;fill-opacity:1;stroke:#5ebc67;stroke-width:0.173089;stroke-opacity:1" />
        <path
           d="m 126.49655,153.56251 c 0,1.33806 -1.08518,2.42324 -2.42325,2.42324 -1.33806,0 -2.42324,-1.08518 -2.42324,-2.42324 0,-1.33807 1.08518,-2.42325 2.42324,-2.42325 1.33807,0 2.42325,1.08518 2.42325,2.42325"
           id="path290"
           style="fill:#5ebc67;fill-opacity:1;stroke:#5ebc67;stroke-width:0.173089;stroke-opacity:1" />
      </g>
    </g>
    <text
       xml:space="preserve"
       style="font-style:normal;font-weight:normal;font-size:13.1156px;line-height:1.25;font-family:sans-serif;letter-spacing:0px;word-spacing:-0.00264583px;fill:#000000;fill-opacity:1;stroke:none;stroke-width:0.32789"
       x="4.7213831"
       y="18.481855"
       id="text1974"
       inkscape:export-filename="/home/persepolis/Documents/greendata.solutions/greendata.solutions.logo.2x.png"
       inkscape:export-xdpi="191.85649"
       inkscape:export-ydpi="191.85649"><tspan
         sodipodi:role="line"
         id="tspan1972"
         x="4.7213831"
         y="18.481855"
         style="font-style:normal;font-variant:normal;font-weight:300;font-stretch:normal;font-family:Exo;-inkscape-font-specification:'Exo Light';stroke-width:0.32789">GREENDATA<tspan
   style="font-style:normal;font-variant:normal;font-weight:300;font-stretch:normal;font-family:Exo;-inkscape-font-specification:'Exo Light';letter-spacing:0px;word-spacing:-2.64583px"
   id="tspan849">.</tspan>SOLUTIONS</tspan></text>
    <text
       xml:space="preserve"
       id="text1976"
       style="font-size:10.5833px;line-height:1.25;font-family:Hack;-inkscape-font-specification:Hack;white-space:pre;shape-inside:url(#rect1978);" />
    <text
       xml:space="preserve"
       id="text907"
       style="font-size:10.5833px;line-height:1.25;font-family:Hack;-inkscape-font-specification:Hack;letter-spacing:0px;word-spacing:-0.00264583px;white-space:pre;shape-inside:url(#rect909);" />
  </g>
</svg>
