<svg xmlns="http://www.w3.org/2000/svg" viewBox="0 0 200 80" fill="none">
  <!-- FOX text -->
  <text x="58" y="38" text-anchor="middle" font-family="Arial Black, Arial, Helvetica, sans-serif" font-size="28" font-weight="900" fill="#003B71">FOX</text>
  <!-- ESS text below -->
  <text x="58" y="56" text-anchor="middle" font-family="Arial, Helvetica, sans-serif" font-size="14" font-weight="400" letter-spacing="5" fill="#003B71">ESS</text>
  <!-- Colorful teardrop/swirl mark -->
  <g transform="translate(120, 10) scale(0.7)">
    <!-- Outer colorful ring segments -->
    <path d="M40,40 Q40,10 65,10 Q80,10 80,30 Q80,55 55,65 Q40,65 40,40 Z" fill="#E8521E" opacity="0.9"/>
    <path d="M40,40 Q20,35 20,18 Q20,5 35,5 Q58,5 65,10 Q40,10 40,40 Z" fill="#3AAA35" opacity="0.9"/>
    <path d="M40,40 Q40,65 55,65 Q68,65 72,52 Q78,38 65,28 Q80,10 65,10 Q80,30 80,30 Q80,55 55,65 Z" fill="#F5A623" opacity="0.9"/>
    <path d="M40,40 Q20,35 20,18 Q20,45 35,60 Q40,65 40,40 Z" fill="#0076BE" opacity="0.9"/>
    <!-- Inner white/light circle -->
    <circle cx="44" cy="35" r="13" fill="white" opacity="0.95"/>
  </g>
</svg>
