<?xml version="1.0" encoding="UTF-8" standalone="no"?>
<!-- Created with Inkscape (http://www.inkscape.org/) -->

<svg
   width="128.74712mm"
   height="41.837902mm"
   viewBox="0 0 128.74712 41.837902"
   version="1.1"
   id="svg1"
   xml:space="preserve"
   inkscape:version="1.4.3 (0d15f75, 2025-12-25)"
   sodipodi:docname="alida_logo_final.svg"
   xmlns:inkscape="http://www.inkscape.org/namespaces/inkscape"
   xmlns:sodipodi="http://sodipodi.sourceforge.net/DTD/sodipodi-0.dtd"
   xmlns="http://www.w3.org/2000/svg"
   xmlns:svg="http://www.w3.org/2000/svg"><sodipodi:namedview
     id="namedview1"
     pagecolor="#ffffff"
     bordercolor="#000000"
     borderopacity="0.25"
     inkscape:showpageshadow="2"
     inkscape:pageopacity="0.0"
     inkscape:pagecheckerboard="0"
     inkscape:deskcolor="#d1d1d1"
     inkscape:document-units="mm"
     inkscape:zoom="0.53718434"
     inkscape:cx="395.58115"
     inkscape:cy="598.49101"
     inkscape:window-width="1707"
     inkscape:window-height="1020"
     inkscape:window-x="-6"
     inkscape:window-y="-6"
     inkscape:window-maximized="1"
     inkscape:current-layer="layer1"><inkscape:page
       x="0"
       y="0"
       width="128.74712"
       height="41.837902"
       id="page2"
       margin="0"
       bleed="0" /></sodipodi:namedview><defs
     id="defs1" /><g
     inkscape:label="Livello 1"
     inkscape:groupmode="layer"
     id="layer1"
     transform="translate(-38.952792,-165.49209)"><g
       id="g27"
       transform="rotate(-177.19084,90.254381,139.24627)"
       inkscape:export-filename="Desktop\alida logo\alida_logo_black.svg"
       inkscape:export-xdpi="96"
       inkscape:export-ydpi="96"><path
         style="fill:#000000"
         d="m 70.045921,112.17706 c 14.06915,-7.04584 31.783309,-12.956621 45.427349,-15.157986 3.74199,-0.603744 8.99667,-1.16922 10.53202,-1.133393 1.43045,0.03338 1.27464,0.06463 -2.51354,0.504099 -6.8191,0.791092 -14.73871,2.683707 -23.01875,5.50098 -4.619746,1.57187 -6.960144,2.48195 -13.890621,5.40149 -6.294022,2.65142 -11.533779,4.57551 -15.875,5.82945 -5.236819,1.51264 -5.322839,1.38979 -0.661458,-0.94464 z"
         id="path26" /><path
         style="fill:#000000"
         d="m 43.645086,112.89848 c 3.127049,-1.58754 7.540392,-3.3922 12.463725,-5.14632 6.155261,-2.19304 13.107665,-4.3071 19.340186,-5.81912 12.672424,-3.07435 23.739053,-4.91822 35.708183,-5.9495 2.45656,-0.211661 4.53023,-0.448599 4.60816,-0.526528 0.28903,-0.289034 -8.73145,-0.12411 -14.234,0.260243 -10.330287,0.72157 -17.124196,1.55001 -28.310419,3.452132 -13.536539,2.301773 -27.839931,5.867243 -52.370228,13.054543 -1.51847,0.44491 -2.81023,0.75954 -2.870579,0.69919 -0.329957,-0.32995 8.035177,-3.95186 13.436641,-5.81775 21.291652,-7.355014 49.721422,-11.974195 74.286125,-12.069778 7.45078,-0.02899 15.40762,0.25119 15.40762,0.542542 0,0.101581 -1.45851,0.265093 -3.24114,0.36336 -1.78263,0.09827 -3.65787,0.234644 -4.16719,0.303059 -0.50932,0.06842 -2.41432,0.307966 -4.23333,0.532335 -12.543992,1.547259 -30.570442,5.759282 -45.243752,10.571552 -8.368595,2.74458 -22.641981,7.04718 -23.232436,7.00325 -0.100754,-0.007 1.092842,-0.66144 2.652434,-1.45321 z"
         id="path25"
         sodipodi:nodetypes="sssssssssssssssscs" /></g><g
       id="g26"
       transform="translate(-90.134325,92.104478)"><path
         id="path24"
         style="fill:#000000"
         d="m 245.45685,96.108862 -2.70784,0.0083 -2.70836,0.0083 -2.23914,3.497461 c -1.23164,1.923657 -3.94032,6.138057 -6.01928,9.365317 -2.07864,3.22674 -3.77959,5.93515 -3.78013,6.01927 4.3e-4,0.0833 1.05941,0.15141 2.35387,0.15141 h 2.35437 l 1.62833,-2.51354 1.62832,-2.51354 h 6.82336 6.82387 l 1.61696,2.51354 1.61695,2.51354 h 2.55437 c 2.02626,0 2.52586,-0.0732 2.41794,-0.3545 -0.0748,-0.195 -2.88711,-4.48125 -6.24975,-9.525 z m -2.62981,3.093352 c 0.006,-1.24e-4 0.01,0.0016 0.0134,0.0052 0.28894,0.299696 5.00583,8.091086 5.00383,8.265646 -0.002,0.1735 -8.23047,0.25645 -9.4356,0.0951 l -0.83767,-0.11214 2.53369,-4.22868 c 1.35022,-2.25311 2.54806,-4.021259 2.72232,-4.025073 z" /><path
         id="path22"
         style="fill:#000000"
         d="m 200.48544,96.061837 v 9.581843 9.58184 l 7.73906,-0.14262 c 8.34655,-0.15407 10.01064,-0.36905 12.89844,-1.66502 1.86003,-0.83473 3.72906,-2.70204 4.54391,-4.54029 0.874,-1.9717 0.81116,-5.08114 -0.1416,-7.02851 -1.22151,-2.496672 -3.25966,-3.910249 -7.19077,-4.987292 -1.88874,-0.517477 -2.91996,-0.5885 -9.97769,-0.68833 z m 4.56509,2.692859 h 4.80539 c 5.37911,0 7.25754,0.320979 9.01806,1.539954 2.05595,1.42352 3.01389,4.59136 2.23242,7.3825 -0.50341,1.79799 -2.27545,3.49403 -4.34909,4.16202 -1.2668,0.40808 -2.5897,0.53335 -6.54844,0.62115 -2.72852,0.0605 -4.97107,0.0676 -4.98367,0.0155 -0.0127,-0.0521 -0.0575,-3.16094 -0.0992,-6.9081 z" /><path
         style="fill:#000000"
         d="m 188.57925,105.63383 v -9.524998 h 2.38125 2.38125 v 9.524998 9.525 h -2.38125 -2.38125 z"
         id="path20" /><path
         style="fill:#000000"
         d="m 163.64216,114.96039 c -0.0536,-0.10914 -0.0904,-4.36562 -0.0818,-9.45885 l 0.0157,-9.260416 2.31126,-0.07639 2.31127,-0.07639 0.07,8.146176 0.07,8.14619 7.60677,0.0702 7.60677,0.0702 v 1.31886 1.31886 h -9.90626 c -5.44844,0 -9.95013,-0.0893 -10.00375,-0.19844 z"
         id="path19" /><path
         id="path18"
         style="fill:#000000"
         d="m 141.61565,96.110929 -6.21771,9.320361 c -3.41974,5.1263 -6.25888,9.41641 -6.30918,9.53379 v 5.1e-4 c -0.0503,0.11739 1.06324,0.17926 2.47479,0.13746 l 2.56676,-0.076 1.49345,-2.43396 1.49397,-2.43448 7.01146,-0.005 7.01146,-0.005 1.54925,2.50476 1.54978,2.50527 h 2.50476 c 2.02256,0 2.48859,-0.0721 2.41949,-0.37414 -0.047,-0.20571 -2.82422,-4.49124 -6.1712,-9.52344 l -6.08542,-9.149317 -2.64583,-5.17e-4 z m 2.52077,2.923336 c 0.0447,-5.7e-5 0.0886,0.03908 0.12868,0.117306 0.0746,0.145521 1.2483,2.050519 2.60862,4.233329 l 2.47375,3.96875 -2.67529,0.16589 c -3.36026,0.20853 -7.83466,0.27015 -7.83466,0.108 0,-0.0675 1.12624,-1.92764 2.50269,-4.13412 1.37645,-2.20647 2.56703,-4.145777 2.64583,-4.309293 0.048,-0.09962 0.0998,-0.149797 0.15038,-0.149862 z" /></g></g></svg>
