<?xml version="1.0" encoding="UTF-8" standalone="no"?>
<!-- Created with Inkscape (http://www.inkscape.org/) -->

<svg
   version="1.1"
   id="svg2"
   width="145.25439"
   height="36.398266"
   viewBox="0 0 145.25439 36.398265"
   sodipodi:docname="ERG logo.svg"
   inkscape:version="1.2.2 (732a01da63, 2022-12-09)"
   xmlns:inkscape="http://www.inkscape.org/namespaces/inkscape"
   xmlns:sodipodi="http://sodipodi.sourceforge.net/DTD/sodipodi-0.dtd"
   xmlns="http://www.w3.org/2000/svg"
   xmlns:svg="http://www.w3.org/2000/svg">
  <defs
     id="defs6">
    <clipPath
       clipPathUnits="userSpaceOnUse"
       id="clipPath354">
      <path
         d="M 0,0 H 595.276 V 841.89 H 0 Z"
         id="path352" />
    </clipPath>
  </defs>
  <sodipodi:namedview
     id="namedview4"
     pagecolor="#ffffff"
     bordercolor="#000000"
     borderopacity="0.25"
     inkscape:showpageshadow="2"
     inkscape:pageopacity="0.0"
     inkscape:pagecheckerboard="0"
     inkscape:deskcolor="#d1d1d1"
     showgrid="false"
     inkscape:zoom="4.1020911"
     inkscape:cx="45.952173"
     inkscape:cy="9.8730134"
     inkscape:window-width="1920"
     inkscape:window-height="1001"
     inkscape:window-x="-9"
     inkscape:window-y="-9"
     inkscape:window-maximized="1"
     inkscape:current-layer="g8" />
  <g
     id="g8"
     inkscape:groupmode="layer"
     inkscape:label="ERG BILANCIO 2022_ENG"
     transform="matrix(1.3333333,0,0,-1.3333333,-590.81719,118.2236)">
    <g
       id="g348">
      <g
         id="g350"
         clip-path="url(#clipPath354)">
        <g
           id="g364"
           transform="translate(520.2485,78.847)">
          <path
             d="m 0,0 c -0.355,-1.554 -0.984,-2.89 -4.581,-2.89 h -7.651 l 1.336,5.825 h 7.652 c 3.596,0 3.518,-1.663 3.163,-3.218 z m -1.454,7.335 h -13.563 l -1.004,-4.4 h 0.001 l -4.655,-20.413 h 5.124 l 2.311,10.162 h 5.678 c 3.666,0 4.974,-1.595 4.741,-3.496 -0.221,-1.902 -0.847,-6.666 -0.847,-6.666 H 1.62 c 0,0 0.28,2.312 0.713,6.613 0.255,2.522 -0.44,4.706 -2.178,5.595 2.579,0.831 4.339,2.204 5.041,5.27 1.083,4.769 -1.446,7.335 -6.65,7.335"
             style="fill:#102d5d;fill-opacity:1;fill-rule:nonzero;stroke:none"
             id="path366" />
        </g>
        <g
           id="g368"
           transform="translate(491.8916,81.7811)">
          <path
             d="M 0,0 H 7.774 L 8.778,4.405 H 0.355 c -5.118,0 -11.691,-2.055 -13.929,-11.859 l -0.25,-1.084 c -0.882,-3.868 -0.519,-6.868 1.071,-8.929 1.505,-1.948 4.016,-2.94 7.446,-2.94 h 8.43 l 1,4.41 h -7.775 c -2.23,0 -3.781,0.551 -4.625,1.643 -0.722,0.936 -0.972,2.33 -0.77,4.142 H 5.448 l 0.999,4.379 H -8.066 C -6.732,-1.725 -4.309,0 0,0"
             style="fill:#102d5d;fill-opacity:1;fill-rule:nonzero;stroke:none"
             id="path370" />
        </g>
        <g
           id="g372"
           transform="translate(532.2427,74.3225)">
          <path
             d="m 0,0 c 1.207,5.295 3.676,7.454 8.517,7.454 h 10.287 l 1.007,4.405 H 8.804 C 3.684,11.859 -2.894,9.804 -5.128,0 l -0.247,-1.084 c -1.719,-7.541 1.388,-11.869 8.516,-11.869 h 11.012 l 1.007,4.41 2.313,10.165 H 6.087 l -0.998,-4.38 h 6.188 L 9.957,-8.543 H 4.864 c -4.646,0 -6.275,2.371 -5.111,7.459 z"
             style="fill:#102d5d;fill-opacity:1;fill-rule:nonzero;stroke:none"
             id="path374" />
        </g>
        <g
           id="g376"
           transform="translate(450.7969,78.6426)">
          <path
             d="m 0,0 c -3.62,0.002 -6.757,-2.504 -7.554,-6.035 0,0 -0.128,-0.502 -0.13,-1.152 0,0 0.329,1.152 4.779,1.152 H 8.226 c 3.614,0 6.748,2.5 7.551,6.023 z"
             style="fill:#4dbd38;fill-opacity:1;fill-rule:nonzero;stroke:none"
             id="path378" />
        </g>
        <g
           id="g380"
           transform="translate(463.6348,88.6677)">
          <path
             d="m 0,0 c -3.735,0 -8.168,-1.013 -11.452,-4.832 h -0.003 c 0,0 -0.386,-0.402 -0.757,-0.921 0,0 0.917,0.921 4.477,0.921 H 3.151 c 2.911,0 5.442,1.999 6.116,4.832 z"
             style="fill:#66cde2;fill-opacity:1;fill-rule:nonzero;stroke:none"
             id="path382" />
        </g>
        <g
           id="g384"
           transform="translate(462.8062,66.2245)">
          <path
             d="m 0,0 h -10.818 c -3.56,0 -3.961,0.921 -3.961,0.921 C -14.699,0.402 -14.537,0 -14.537,0 h -10e-4 c 0.251,-0.583 0.57,-1.129 0.948,-1.617 1.656,-2.142 4.416,-3.233 8.19,-3.233 H 3.874 C 4.437,-2.365 2.548,0 0,0"
             style="fill:#102d5d;fill-opacity:1;fill-rule:nonzero;stroke:none"
             id="path386" />
        </g>
      </g>
    </g>
  </g>
</svg>
