<?xml version="1.0" encoding="UTF-8"?>
<!-- Generator: Adobe Illustrator 13.0.1, SVG Export Plug-In  -->
<!DOCTYPE svg PUBLIC "-//W3C//DTD SVG 1.1//EN" "http://www.w3.org/Graphics/SVG/1.1/DTD/svg11.dtd">
<svg version="1.1" xmlns="http://www.w3.org/2000/svg" xmlns:xlink="http://www.w3.org/1999/xlink" xmlns:a="http://ns.adobe.com/AdobeSVGViewerExtensions/3.0/" x="0px" y="0px" width="104px" height="22px" viewBox="-0.87 -0.632 104 22" enable-background="new -0.87 -0.632 104 22" xml:space="preserve">
<defs>
</defs>
<polyline fill="#175EA0" points="37.225,21.26 37.225,15.945 45.221,21.26 63.817,21.26 47.861,10.629 49.782,9.447 67.46,21.26   74.334,21.26 74.332,0.042 63.784,0.042 63.784,5.366 55.847,0.042 45.089,0.042 37.225,5.366 37.225,0 26.545,7.131 26.545,14.109   19.518,9.41 33.705,0 15.953,0 0,10.629 15.953,21.26 37.225,21.26 "/>
<polyline fill="#EBB630" points="77.868,21.26 93.821,10.629 77.868,0 86.753,0 102.707,10.629 86.753,21.26 77.868,21.26 "/>
</svg>