<?xml version="1.0" encoding="UTF-8"?>
<!-- Generator: Adobe Illustrator 15.0.0, SVG Export Plug-In . SVG Version: 6.00 Build 0)  -->
<!DOCTYPE svg PUBLIC "-//W3C//DTD SVG 1.1//EN" "http://www.w3.org/Graphics/SVG/1.1/DTD/svg11.dtd">
<svg version="1.1" id="Layer_1" xmlns="http://www.w3.org/2000/svg" xmlns:xlink="http://www.w3.org/1999/xlink" x="0px" y="0px" width="207.75px" height="48.75px" viewBox="0 0 207.75 48.75" enable-background="new 0 0 207.75 48.75" xml:space="preserve">
<rect x="173.004" y="5.206" fill="#1F438E" width="32.702" height="32.701"/>
<g>
	<rect x="173.004" y="5.206" fill="none" stroke="#FFFFFF" stroke-width="0.7" width="32.702" height="32.701"/>
</g>
<g>
	<path fill="#FFFFFF" d="M190.22,15.194v-0.163h0.003C190.22,14.169,190.22,15.194,190.22,15.194"/>
	<path fill="#FFFFFF" d="M191.338,15.046l-1.115-0.015c0.003,0.665,0.007,2.448,0.014,6.681c-0.009,2.979-2.427,5.393-5.408,5.393   h-0.686v-1.181h0.687c2.336,0.001,4.187-1.884,4.187-4.22l-0.034-6.624l-1.103-0.008v6.625c0,1.683-1.363,3.047-3.048,3.047h-0.688   v-1.179h0.69c1.031,0,1.867-0.836,1.868-1.867l0.002-6.601h-1.865c-3.64,0-6.59,2.949-6.591,6.59   c0.001,1.682,0.007,9.054,0.012,12.019l1.185,0.001c-0.005-3.713-0.018-12.021-0.018-12.021c0-2.988,2.424-5.41,5.41-5.41h0.688   l-0.001,1.18h-0.689c-2.336,0-4.229,1.894-4.229,4.229l0.001,12.021l1.178-0.008V21.683c0-1.684,1.364-3.048,3.048-3.048h0.69v1.18   h-0.692c-1.031,0-1.867,0.836-1.867,1.867l0.006,6.602h1.856c3.64,0,6.559-2.856,6.559-6.495   C191.384,19.104,191.338,15.046,191.338,15.046 M184.143,21.681c0-0.38,0.307-0.687,0.686-0.687h0.694v0.705   c0,0.379-0.309,0.687-0.688,0.687h-0.692V21.681z"/>
	<path fill-rule="evenodd" clip-rule="evenodd" fill="#A7A7A8" d="M195.126,21.372c0-0.379-0.307-0.687-0.687-0.687h-0.693v0.706   c0,0.379,0.308,0.686,0.688,0.686h0.692V21.372z M187.852,9.406h1.197c0,1.11,0.003,1.11-0.017,11.997   c0.009,2.98,2.427,5.392,5.409,5.392l0.685,0.002v-1.182h-0.688c-2.336,0.001-4.229-1.893-4.229-4.229l0.006-11.97h1.185   l-0.012,11.973c0,1.682,1.365,3.047,3.048,3.047h0.689v-1.179h-0.691c-1.03,0-1.866-0.836-1.866-1.868l-0.002-6.601h1.864   c3.64,0,6.59,2.95,6.59,6.589c0,1.684,0.005,0.47-0.001,3.434l-1.181,1.069c0.005-3.714,0.003-4.503,0.003-4.503   c0-2.987-2.422-5.41-5.409-5.41h-0.688l0.001,1.18h0.688c2.335,0,4.229,1.893,4.229,4.228v5.555l-1.179,1.048v-6.604   c0-1.683-1.365-3.047-3.049-3.047h-0.689v1.18h0.691c1.031,0,1.867,0.836,1.867,1.866l-0.006,6.602h-1.855   c-3.64,0-6.592-2.95-6.592-6.59V9.406z"/>
	<path fill="#A7A7A8" d="M5.99,21.598h2.52v2.109h0.063c0.473-0.756,1.7-2.488,4.661-2.488c4.631,0,6.931,3.844,6.931,8.41   c0,5.796-3.528,8.662-7.119,8.662c-1.953,0-3.402-0.976-4.221-2.079H8.762v7.97H5.99V21.598z M12.856,36.023   c1.639,0,4.474-1.039,4.474-6.395c0-4.599-2.269-6.236-4.348-6.236c-2.646,0-4.504,2.646-4.504,6.457   C8.479,34.764,10.967,36.023,12.856,36.023"/>
	<path fill="#A7A7A8" d="M24.134,23.927c1.481-1.889,3.843-2.708,5.985-2.708c3.433,0,7.654,2.048,7.654,8.284   c0,3.497-0.883,5.104-1.639,6.017c-1.543,1.89-3.843,2.771-6.016,2.771c-2.205,0-4.504-0.85-6.048-2.771   c-1.513-1.891-1.606-4.535-1.606-5.765C22.465,27.991,22.748,25.692,24.134,23.927 M30.119,36.023c3.937,0,4.818-3.78,4.818-6.363   c0-4.346-2.33-6.173-4.818-6.173c-1.732,0-4.819,0.976-4.819,6.268C25.3,35.078,28.481,36.023,30.119,36.023"/>
	<path fill="#A7A7A8" d="M40.893,21.597h2.52v2.457h0.063c0.63-1.26,1.479-2.835,3.465-2.835c1.417,0,2.361,0.599,2.835,0.882   l-0.945,2.552c-0.599-0.347-1.292-0.599-2.016-0.599c-2.867,0-3.15,3.622-3.15,5.292v8.567h-2.771V21.597z"/>
	<path fill="#A7A7A8" d="M59.661,37.882c-0.473,0.094-1.165,0.252-2.079,0.252c-3.843,0-3.843-2.299-3.843-5.008v-9.387h-2.016   v-2.143h2.016v-4.062l2.771-1.67v5.732h2.772v2.143h-2.772v9.544c0,1.322,0,2.268,1.544,2.268c0.473,0,0.913-0.062,1.229-0.126   L59.661,37.882z"/>
	<path fill="#A7A7A8" d="M76.136,32.999c-0.819,3.087-3.119,5.292-7.15,5.292c-5.071,0-7.812-3.37-7.812-8.41   c0-4.977,2.677-8.661,7.654-8.661c1.386,0,7.653,0.408,7.401,9.229H64.009c0.22,3.906,2.52,5.575,4.977,5.575   c3.118,0,3.969-2.426,4.315-3.37L76.136,32.999z M73.395,28.181c-0.062-0.599-0.126-1.291-0.44-2.079   c-0.567-1.387-2.143-2.615-4.126-2.615c-3.087,0-4.504,2.552-4.662,4.694H73.395z"/>
	<path fill="#A7A7A8" d="M79.475,21.597h2.521v2.457h0.062c0.631-1.26,1.48-2.835,3.466-2.835c1.417,0,2.361,0.599,2.835,0.882   l-0.945,2.552c-0.599-0.347-1.292-0.599-2.016-0.599c-2.867,0-3.15,3.622-3.15,5.292v8.567h-2.772V21.597z"/>
	<path fill="#A7A7A8" d="M90.06,37.913V15.36h2.771v8.063h0.063c0.377-0.566,1.699-2.205,4.41-2.205   c4.408,0,6.929,3.591,6.929,8.285c0,6.897-4.441,8.787-7.056,8.787c-0.692,0-2.961-0.094-4.473-2.426h-0.063v2.048H90.06z    M93.43,33.882c0.85,1.26,1.984,2.142,3.527,2.142c2.205,0,4.441-1.827,4.441-6.3c0-3.591-1.48-6.237-4.348-6.237   c-2.865,0-4.44,2.835-4.44,6.144C92.61,32.4,93.051,33.314,93.43,33.882"/>
	<path fill="#A7A7A8" d="M107.479,21.597h2.52v2.457h0.063c0.63-1.26,1.479-2.835,3.465-2.835c1.417,0,2.362,0.599,2.835,0.882   l-0.945,2.552c-0.598-0.347-1.291-0.599-2.016-0.599c-2.866,0-3.15,3.622-3.15,5.292v8.567h-2.771V21.597z"/>
	<path fill="#A7A7A8" d="M118.724,23.927c1.479-1.889,3.843-2.708,5.984-2.708c3.434,0,7.654,2.048,7.654,8.284   c0,3.497-0.882,5.104-1.638,6.017c-1.543,1.89-3.843,2.771-6.017,2.771c-2.205,0-4.505-0.85-6.048-2.771   c-1.512-1.891-1.605-4.535-1.605-5.765C117.055,27.991,117.338,25.692,118.724,23.927 M124.708,36.023   c3.938,0,4.819-3.78,4.819-6.363c0-4.346-2.331-6.173-4.819-6.173c-1.732,0-4.819,0.976-4.819,6.268   C119.889,35.078,123.07,36.023,124.708,36.023"/>
	<path fill="#A7A7A8" d="M136.237,23.927c1.48-1.889,3.843-2.708,5.984-2.708c3.434,0,7.654,2.048,7.654,8.284   c0,3.497-0.882,5.104-1.638,6.017c-1.543,1.89-3.844,2.771-6.017,2.771c-2.205,0-4.504-0.85-6.048-2.771   c-1.512-1.891-1.605-4.535-1.605-5.765C134.568,27.991,134.851,25.692,136.237,23.927 M142.222,36.023   c3.938,0,4.819-3.78,4.819-6.363c0-4.346-2.331-6.173-4.819-6.173c-1.731,0-4.818,0.976-4.818,6.268   C137.403,35.078,140.584,36.023,142.222,36.023"/>
	<polygon fill="#A7A7A8" points="153.059,15.36 155.83,15.36 155.83,28.212 162.383,21.598 165.973,21.598 159.736,27.646    166.604,37.913 163.201,37.913 157.783,29.566 155.83,31.424 155.83,37.913 153.059,37.913  "/>
</g>
</svg>